<?xml version="1.0" encoding="iso-8859-1"?>
<!-- Generator: Adobe Illustrator 21.0.2, SVG Export Plug-In . SVG Version: 6.00 Build 0)  -->
<svg version="1.1" id="Layer_1" xmlns="http://www.w3.org/2000/svg" xmlns:xlink="http://www.w3.org/1999/xlink" x="0px" y="0px"
	 viewBox="-49 141 512 512" style="enable-background:new -49 141 512 512;" xml:space="preserve">
<path d="M455.499,199.701l-51.2-51.2c-4.958-4.966-11.511-7.501-18.108-7.501c-5.376,0-10.778,1.69-15.351,5.12l-136.533,102.4
	c-0.973,0.725-1.886,1.519-2.739,2.381L60.901,421.568c-0.853,0.853-1.647,1.775-2.381,2.739L-43.88,560.84
	c-7.646,10.189-6.63,24.457,2.381,33.459l51.2,51.2C14.659,650.466,21.212,653,27.809,653c5.376,0,10.778-1.69,15.351-5.12
	l136.533-102.4c0.973-0.725,1.886-1.519,2.739-2.381l170.667-170.667c0.853-0.853,1.647-1.775,2.381-2.739l102.4-136.533
	C465.526,222.971,464.51,208.703,455.499,199.701z M27.8,627.4l-51.2-51.2l94.643-126.191l82.748,82.748L27.8,627.4z
	 M173.387,515.955l-85.333-85.333l152.567-152.567l85.333,85.333L173.387,515.955z M342.757,343.991l-82.748-82.748L386.2,166.6
	l51.2,51.2L342.757,343.991z"/>
<rect x="141.967" y="431.139" transform="matrix(0.7071 -0.7071 0.7071 0.7071 -267.0286 243.2137)" width="36.207" height="25.6"/>
<rect x="235.836" y="337.271" transform="matrix(0.7071 -0.7071 0.7071 0.7071 -173.1603 282.0952)" width="36.207" height="25.6"/>
<rect x="182.855" y="384.243" transform="matrix(0.7071 -0.7071 0.7071 0.7071 -220.1257 262.656)" width="48.273" height="25.6"/>
</svg>
